<?xml version="1.0" encoding="UTF-8"?>
<svg xmlns="http://www.w3.org/2000/svg" xmlns:xlink="http://www.w3.org/1999/xlink" width="80px" height="80px" viewBox="0 0 80 80" version="1.1">
<defs>
<filter id="alpha" filterUnits="objectBoundingBox" x="0%" y="0%" width="100%" height="100%">
  <feColorMatrix type="matrix" in="SourceGraphic" values="0 0 0 0 1 0 0 0 0 1 0 0 0 0 1 0 0 0 1 0"/>
</filter>
<mask id="mask0">
  <g filter="url(#alpha)">
<rect x="0" y="0" width="80" height="80" style="fill:rgb(0%,0%,0%);fill-opacity:0.756863;stroke:none;"/>
  </g>
</mask>
<clipPath id="clip1">
  <rect x="0" y="0" width="80" height="80"/>
</clipPath>
<g id="surface5" clip-path="url(#clip1)">
<path style=" stroke:none;fill-rule:evenodd;fill:rgb(80.784314%,80.784314%,80.784314%);fill-opacity:1;" d="M 79.816406 9.355469 C 79.886719 15.128906 79.921875 20.925781 79.921875 26.742188 C 79.902344 32.539062 79.886719 38.335938 79.867188 44.132812 C 79.835938 44.117188 79.808594 44.097656 79.789062 44.066406 C 79.769531 43.539062 79.753906 43.007812 79.734375 42.480469 C 79.699219 32.1875 79.699219 21.894531 79.734375 11.601562 C 79.746094 10.847656 79.773438 10.101562 79.816406 9.355469 Z M 79.816406 9.355469 "/>
</g>
<mask id="mask1">
  <g filter="url(#alpha)">
<rect x="0" y="0" width="80" height="80" style="fill:rgb(0%,0%,0%);fill-opacity:0.996078;stroke:none;"/>
  </g>
</mask>
<clipPath id="clip2">
  <rect x="0" y="0" width="80" height="80"/>
</clipPath>
<g id="surface8" clip-path="url(#clip2)">
<path style=" stroke:none;fill-rule:evenodd;fill:rgb(98.823529%,98.823529%,98.823529%);fill-opacity:1;" d="M 43.675781 20.460938 C 44.296875 20.457031 44.914062 20.488281 45.527344 20.5625 C 46.183594 20.792969 46.835938 21.035156 47.488281 21.289062 C 47.542969 21.34375 47.597656 21.402344 47.644531 21.453125 C 47.644531 21.519531 47.644531 21.585938 47.644531 21.652344 C 48.042969 21.902344 48.449219 22.15625 48.863281 22.414062 C 49.265625 22.808594 49.652344 23.226562 50.027344 23.667969 C 50.542969 24.222656 51.027344 24.832031 51.480469 25.488281 C 51.601562 25.773438 51.726562 26.058594 51.851562 26.347656 C 51.902344 26.429688 51.949219 26.429688 51.984375 26.347656 C 52.027344 26.371094 52.046875 26.414062 52.035156 26.480469 C 51.984375 26.476562 51.949219 26.511719 51.929688 26.578125 C 52.296875 27.472656 52.589844 28.453125 52.804688 29.519531 C 52.859375 29.59375 52.894531 29.683594 52.910156 29.785156 C 52.925781 29.722656 52.953125 29.679688 52.988281 29.652344 C 52.988281 29.71875 52.988281 29.785156 52.988281 29.851562 C 52.917969 29.882812 52.882812 29.949219 52.882812 30.050781 C 53.066406 31.234375 53.082031 32.425781 52.9375 33.621094 C 52.929688 33.742188 52.964844 33.832031 53.042969 33.882812 C 53.042969 33.949219 53.042969 34.015625 53.042969 34.082031 C 52.957031 33.972656 52.902344 33.996094 52.882812 34.148438 C 52.207031 37.863281 50.53125 40.5625 47.855469 42.246094 C 47.816406 42.292969 47.800781 42.347656 47.804688 42.414062 C 46.050781 43.429688 44.226562 43.761719 42.328125 43.40625 C 42.292969 40.078125 42.292969 36.75 42.328125 33.421875 C 42.355469 33.386719 42.382812 33.355469 42.40625 33.324219 C 44.082031 33.289062 45.757812 33.277344 47.433594 33.289062 C 47.433594 31.238281 47.433594 29.191406 47.433594 27.140625 C 42.335938 27.140625 37.238281 27.140625 32.144531 27.140625 C 32.144531 29.234375 32.144531 31.328125 32.144531 33.421875 C 33.835938 33.421875 35.527344 33.421875 37.222656 33.421875 C 37.214844 36.59375 37.222656 39.769531 37.25 42.941406 C 37.261719 43.003906 37.289062 43.046875 37.328125 43.074219 C 37.347656 43.242188 37.3125 43.386719 37.222656 43.503906 C 35.5 43.558594 33.777344 43.546875 32.0625 43.472656 C 32.035156 40.164062 32.027344 36.859375 32.035156 33.554688 C 30.308594 33.554688 28.582031 33.554688 26.851562 33.554688 C 26.851562 29.210938 26.851562 24.871094 26.851562 20.527344 C 28.492188 20.527344 30.132812 20.527344 31.773438 20.527344 C 33.746094 20.574219 35.730469 20.59375 37.726562 20.59375 C 39.726562 20.59375 41.710938 20.550781 43.675781 20.460938 Z M 43.675781 20.460938 "/>
</g>
<mask id="mask2">
  <g filter="url(#alpha)">
<rect x="0" y="0" width="80" height="80" style="fill:rgb(0%,0%,0%);fill-opacity:0.223529;stroke:none;"/>
  </g>
</mask>
<clipPath id="clip3">
  <rect x="0" y="0" width="80" height="80"/>
</clipPath>
<g id="surface11" clip-path="url(#clip3)">
<path style=" stroke:none;fill-rule:evenodd;fill:rgb(56.078431%,56.078431%,56.078431%);fill-opacity:1;" d="M 43.675781 20.460938 C 41.710938 20.550781 39.726562 20.59375 37.726562 20.59375 C 35.730469 20.59375 33.746094 20.574219 31.773438 20.527344 C 35.738281 20.464844 39.707031 20.441406 43.675781 20.460938 Z M 43.675781 20.460938 "/>
</g>
<mask id="mask3">
  <g filter="url(#alpha)">
<rect x="0" y="0" width="80" height="80" style="fill:rgb(0%,0%,0%);fill-opacity:0.184314;stroke:none;"/>
  </g>
</mask>
<clipPath id="clip4">
  <rect x="0" y="0" width="80" height="80"/>
</clipPath>
<g id="surface14" clip-path="url(#clip4)">
<path style=" stroke:none;fill-rule:evenodd;fill:rgb(89.803922%,89.803922%,89.803922%);fill-opacity:1;" d="M 47.644531 21.453125 C 49.285156 22.433594 50.652344 23.84375 51.746094 25.6875 C 51.839844 25.902344 51.921875 26.121094 51.984375 26.347656 C 51.949219 26.429688 51.902344 26.429688 51.851562 26.347656 C 51.726562 26.058594 51.601562 25.773438 51.480469 25.488281 C 51.027344 24.832031 50.542969 24.222656 50.027344 23.667969 C 49.652344 23.226562 49.265625 22.808594 48.863281 22.414062 C 48.449219 22.15625 48.042969 21.902344 47.644531 21.652344 C 47.644531 21.585938 47.644531 21.519531 47.644531 21.453125 Z M 47.644531 21.453125 "/>
</g>
<mask id="mask4">
  <g filter="url(#alpha)">
<rect x="0" y="0" width="80" height="80" style="fill:rgb(0%,0%,0%);fill-opacity:0.619608;stroke:none;"/>
  </g>
</mask>
<clipPath id="clip5">
  <rect x="0" y="0" width="80" height="80"/>
</clipPath>
<g id="surface17" clip-path="url(#clip5)">
<path style=" stroke:none;fill-rule:evenodd;fill:rgb(88.627451%,88.627451%,88.627451%);fill-opacity:1;" d="M 52.035156 26.480469 C 52.449219 27.476562 52.765625 28.535156 52.988281 29.652344 C 52.953125 29.679688 52.925781 29.722656 52.910156 29.785156 C 52.894531 29.683594 52.859375 29.59375 52.804688 29.519531 C 52.589844 28.453125 52.296875 27.472656 51.929688 26.578125 C 51.949219 26.511719 51.984375 26.476562 52.035156 26.480469 Z M 52.035156 26.480469 "/>
</g>
<mask id="mask5">
  <g filter="url(#alpha)">
<rect x="0" y="0" width="80" height="80" style="fill:rgb(0%,0%,0%);fill-opacity:0.407843;stroke:none;"/>
  </g>
</mask>
<clipPath id="clip6">
  <rect x="0" y="0" width="80" height="80"/>
</clipPath>
<g id="surface20" clip-path="url(#clip6)">
<path style=" stroke:none;fill-rule:evenodd;fill:rgb(88.235294%,88.235294%,88.235294%);fill-opacity:1;" d="M 52.988281 29.851562 C 53.21875 31.199219 53.234375 32.542969 53.042969 33.882812 C 52.964844 33.832031 52.929688 33.742188 52.9375 33.621094 C 53.082031 32.425781 53.066406 31.234375 52.882812 30.050781 C 52.882812 29.949219 52.917969 29.882812 52.988281 29.851562 Z M 52.988281 29.851562 "/>
</g>
<mask id="mask6">
  <g filter="url(#alpha)">
<rect x="0" y="0" width="80" height="80" style="fill:rgb(0%,0%,0%);fill-opacity:0.294118;stroke:none;"/>
  </g>
</mask>
<clipPath id="clip7">
  <rect x="0" y="0" width="80" height="80"/>
</clipPath>
<g id="surface23" clip-path="url(#clip7)">
<path style=" stroke:none;fill-rule:evenodd;fill:rgb(84.313725%,84.313725%,84.313725%);fill-opacity:1;" d="M 37.222656 33.421875 C 37.253906 33.429688 37.28125 33.449219 37.300781 33.488281 C 37.328125 36.683594 37.335938 39.878906 37.328125 43.074219 C 37.289062 43.046875 37.261719 43.003906 37.25 42.941406 C 37.222656 39.769531 37.214844 36.59375 37.222656 33.421875 Z M 37.222656 33.421875 "/>
</g>
<mask id="mask7">
  <g filter="url(#alpha)">
<rect x="0" y="0" width="80" height="80" style="fill:rgb(0%,0%,0%);fill-opacity:0.313725;stroke:none;"/>
  </g>
</mask>
<clipPath id="clip8">
  <rect x="0" y="0" width="80" height="80"/>
</clipPath>
<g id="surface26" clip-path="url(#clip8)">
<path style=" stroke:none;fill-rule:evenodd;fill:rgb(89.019608%,89.019608%,89.019608%);fill-opacity:1;" d="M 53.042969 34.082031 C 52.527344 37.058594 51.308594 39.46875 49.390625 41.324219 C 48.882812 41.726562 48.355469 42.089844 47.804688 42.414062 C 47.800781 42.347656 47.816406 42.292969 47.855469 42.246094 C 50.53125 40.5625 52.207031 37.863281 52.882812 34.148438 C 52.902344 33.996094 52.957031 33.972656 53.042969 34.082031 Z M 53.042969 34.082031 "/>
</g>
<mask id="mask8">
  <g filter="url(#alpha)">
<rect x="0" y="0" width="80" height="80" style="fill:rgb(0%,0%,0%);fill-opacity:0.00392157;stroke:none;"/>
  </g>
</mask>
<clipPath id="clip9">
  <rect x="0" y="0" width="80" height="80"/>
</clipPath>
<g id="surface29" clip-path="url(#clip9)">
<path style=" stroke:none;fill-rule:evenodd;fill:rgb(0%,0%,0%);fill-opacity:1;" d="M 36.324219 46.644531 C 36.429688 46.632812 36.535156 46.644531 36.640625 46.675781 C 36.503906 46.910156 36.398438 46.898438 36.324219 46.644531 Z M 36.324219 46.644531 "/>
</g>
<mask id="mask9">
  <g filter="url(#alpha)">
<rect x="0" y="0" width="80" height="80" style="fill:rgb(0%,0%,0%);fill-opacity:0.00392157;stroke:none;"/>
  </g>
</mask>
<clipPath id="clip10">
  <rect x="0" y="0" width="80" height="80"/>
</clipPath>
<g id="surface32" clip-path="url(#clip10)">
<path style=" stroke:none;fill-rule:evenodd;fill:rgb(0%,0%,0%);fill-opacity:1;" d="M 34.683594 46.910156 C 34.769531 46.910156 34.859375 46.910156 34.945312 46.910156 C 34.898438 47.292969 34.757812 47.371094 34.523438 47.140625 C 34.585938 47.070312 34.640625 46.996094 34.683594 46.910156 Z M 34.683594 46.910156 "/>
</g>
<mask id="mask10">
  <g filter="url(#alpha)">
<rect x="0" y="0" width="80" height="80" style="fill:rgb(0%,0%,0%);fill-opacity:0.00392157;stroke:none;"/>
  </g>
</mask>
<clipPath id="clip11">
  <rect x="0" y="0" width="80" height="80"/>
</clipPath>
<g id="surface35" clip-path="url(#clip11)">
<path style=" stroke:none;fill-rule:evenodd;fill:rgb(0%,0%,0%);fill-opacity:1;" d="M 46.851562 47.042969 C 46.929688 47.023438 47 47.046875 47.0625 47.109375 C 46.921875 47.722656 46.777344 47.722656 46.640625 47.109375 C 46.726562 47.125 46.796875 47.101562 46.851562 47.042969 Z M 46.851562 47.042969 "/>
</g>
<mask id="mask11">
  <g filter="url(#alpha)">
<rect x="0" y="0" width="80" height="80" style="fill:rgb(0%,0%,0%);fill-opacity:0.00392157;stroke:none;"/>
  </g>
</mask>
<clipPath id="clip12">
  <rect x="0" y="0" width="80" height="80"/>
</clipPath>
<g id="surface38" clip-path="url(#clip12)">
<path style=" stroke:none;fill-rule:evenodd;fill:rgb(0%,0%,0%);fill-opacity:1;" d="M 29.921875 47.171875 C 30 47.175781 30.027344 47.21875 30 47.304688 C 29.796875 47.402344 29.773438 47.359375 29.921875 47.171875 Z M 29.921875 47.171875 "/>
</g>
<mask id="mask12">
  <g filter="url(#alpha)">
<rect x="0" y="0" width="80" height="80" style="fill:rgb(0%,0%,0%);fill-opacity:0.956863;stroke:none;"/>
  </g>
</mask>
<clipPath id="clip13">
  <rect x="0" y="0" width="80" height="80"/>
</clipPath>
<g id="surface41" clip-path="url(#clip13)">
<path style=" stroke:none;fill-rule:evenodd;fill:rgb(91.764706%,91.764706%,91.764706%);fill-opacity:1;" d="M 25.6875 47.902344 C 26.78125 47.902344 27.875 47.902344 28.96875 47.902344 C 28.984375 48.335938 28.96875 48.765625 28.914062 49.191406 C 28.226562 49.222656 27.539062 49.234375 26.851562 49.222656 C 26.851562 49.421875 26.851562 49.621094 26.851562 49.816406 C 27.382812 49.808594 27.910156 49.816406 28.4375 49.851562 C 28.5 50.230469 28.507812 50.617188 28.464844 51.007812 C 28.4375 51.042969 28.414062 51.074219 28.386719 51.109375 C 27.875 51.140625 27.363281 51.152344 26.851562 51.140625 C 26.851562 51.316406 26.851562 51.492188 26.851562 51.667969 C 27.558594 51.667969 28.261719 51.667969 28.96875 51.667969 C 28.96875 52.089844 28.96875 52.507812 28.96875 52.925781 C 27.875 52.925781 26.78125 52.925781 25.6875 52.925781 C 25.6875 51.25 25.6875 49.574219 25.6875 47.902344 Z M 25.6875 47.902344 "/>
</g>
<mask id="mask13">
  <g filter="url(#alpha)">
<rect x="0" y="0" width="80" height="80" style="fill:rgb(0%,0%,0%);fill-opacity:0.984314;stroke:none;"/>
  </g>
</mask>
<clipPath id="clip14">
  <rect x="0" y="0" width="80" height="80"/>
</clipPath>
<g id="surface44" clip-path="url(#clip14)">
<path style=" stroke:none;fill-rule:evenodd;fill:rgb(94.901961%,94.901961%,94.901961%);fill-opacity:1;" d="M 42.832031 47.96875 C 42.980469 48.019531 43.136719 48.054688 43.308594 48.066406 C 43.917969 48.078125 44.527344 48.109375 45.132812 48.164062 C 45.160156 48.128906 45.195312 48.109375 45.238281 48.097656 C 45.492188 48.28125 45.738281 48.480469 45.980469 48.695312 C 46 48.65625 46.027344 48.636719 46.058594 48.628906 C 46.234375 48.835938 46.339844 49.101562 46.375 49.421875 C 46.316406 49.441406 46.28125 49.496094 46.269531 49.585938 C 46.371094 50.460938 46.289062 51.308594 46.03125 52.132812 C 45.816406 52.328125 45.59375 52.515625 45.371094 52.695312 C 45.402344 52.726562 45.4375 52.734375 45.476562 52.726562 C 45.414062 52.832031 45.324219 52.886719 45.210938 52.890625 C 44.957031 52.9375 44.703125 52.972656 44.445312 52.992188 C 43.859375 52.957031 43.277344 52.914062 42.699219 52.859375 C 42.671875 51.230469 42.664062 49.597656 42.671875 47.96875 C 42.726562 47.96875 42.777344 47.96875 42.832031 47.96875 Z M 43.835938 49.222656 C 45.050781 48.96875 45.5 49.585938 45.183594 51.074219 C 45.128906 51.277344 45.03125 51.441406 44.894531 51.570312 C 44.546875 51.660156 44.195312 51.695312 43.835938 51.667969 C 43.835938 50.855469 43.835938 50.039062 43.835938 49.222656 Z M 43.835938 49.222656 "/>
</g>
<mask id="mask14">
  <g filter="url(#alpha)">
<rect x="0" y="0" width="80" height="80" style="fill:rgb(0%,0%,0%);fill-opacity:0.121569;stroke:none;"/>
  </g>
</mask>
<clipPath id="clip15">
  <rect x="0" y="0" width="80" height="80"/>
</clipPath>
<g id="surface47" clip-path="url(#clip15)">
<path style=" stroke:none;fill-rule:evenodd;fill:rgb(74.117647%,74.117647%,74.117647%);fill-opacity:1;" d="M 46.058594 48.628906 C 46.027344 48.636719 46 48.65625 45.980469 48.695312 C 45.738281 48.480469 45.492188 48.28125 45.238281 48.097656 C 45.195312 48.109375 45.160156 48.128906 45.132812 48.164062 C 44.527344 48.109375 43.917969 48.078125 43.308594 48.066406 C 43.136719 48.054688 42.980469 48.019531 42.832031 47.96875 C 43.554688 47.902344 44.277344 47.894531 45 47.933594 C 45.429688 47.996094 45.78125 48.230469 46.058594 48.628906 Z M 46.058594 48.628906 "/>
</g>
<mask id="mask15">
  <g filter="url(#alpha)">
<rect x="0" y="0" width="80" height="80" style="fill:rgb(0%,0%,0%);fill-opacity:0.976471;stroke:none;"/>
  </g>
</mask>
<clipPath id="clip16">
  <rect x="0" y="0" width="80" height="80"/>
</clipPath>
<g id="surface50" clip-path="url(#clip16)">
<path style=" stroke:none;fill-rule:evenodd;fill:rgb(94.117647%,94.117647%,94.117647%);fill-opacity:1;" d="M 47.699219 47.902344 C 48.082031 47.878906 48.460938 47.902344 48.835938 47.96875 C 48.871094 49.597656 48.871094 51.230469 48.835938 52.859375 C 48.460938 52.925781 48.082031 52.945312 47.699219 52.925781 C 47.699219 51.25 47.699219 49.574219 47.699219 47.902344 Z M 47.699219 47.902344 "/>
</g>
<mask id="mask16">
  <g filter="url(#alpha)">
<rect x="0" y="0" width="80" height="80" style="fill:rgb(0%,0%,0%);fill-opacity:0.94902;stroke:none;"/>
  </g>
</mask>
<clipPath id="clip17">
  <rect x="0" y="0" width="80" height="80"/>
</clipPath>
<g id="surface53" clip-path="url(#clip17)">
<path style=" stroke:none;fill-rule:evenodd;fill:rgb(93.72549%,93.72549%,93.72549%);fill-opacity:1;" d="M 20.925781 47.96875 C 22.089844 47.957031 23.253906 47.96875 24.417969 48 C 24.476562 48.359375 24.488281 48.722656 24.445312 49.089844 C 24.417969 49.125 24.390625 49.15625 24.363281 49.191406 C 24.011719 49.222656 23.660156 49.234375 23.308594 49.222656 C 23.316406 50.414062 23.308594 51.601562 23.28125 52.792969 C 23.101562 52.878906 22.90625 52.921875 22.699219 52.925781 C 22.5 52.925781 22.304688 52.902344 22.117188 52.859375 C 22.089844 51.648438 22.082031 50.433594 22.089844 49.222656 C 21.71875 49.234375 21.347656 49.222656 20.980469 49.191406 C 20.925781 48.789062 20.910156 48.378906 20.925781 47.96875 Z M 20.925781 47.96875 "/>
</g>
<mask id="mask17">
  <g filter="url(#alpha)">
<rect x="0" y="0" width="80" height="80" style="fill:rgb(0%,0%,0%);fill-opacity:0.996078;stroke:none;"/>
  </g>
</mask>
<clipPath id="clip18">
  <rect x="0" y="0" width="80" height="80"/>
</clipPath>
<g id="surface56" clip-path="url(#clip18)">
<path style=" stroke:none;fill-rule:evenodd;fill:rgb(92.941176%,92.941176%,92.941176%);fill-opacity:1;" d="M 32.035156 49.222656 C 31.992188 49.140625 31.921875 49.097656 31.824219 49.089844 C 31.566406 49.183594 31.398438 49.402344 31.324219 49.753906 C 31.21875 50.214844 31.21875 50.679688 31.324219 51.140625 C 31.378906 51.449219 31.457031 51.46875 31.5625 51.207031 C 31.625 51.453125 31.765625 51.59375 31.984375 51.636719 C 32.304688 51.691406 32.621094 51.679688 32.9375 51.601562 C 32.984375 51.433594 33.039062 51.269531 33.09375 51.109375 C 33.484375 51.074219 33.871094 51.0625 34.257812 51.074219 C 34.316406 51.539062 34.234375 51.957031 34.019531 52.332031 C 33.855469 52.472656 33.703125 52.636719 33.570312 52.828125 C 32.777344 53.007812 31.984375 53.007812 31.191406 52.828125 C 30.714844 52.476562 30.425781 51.957031 30.316406 51.273438 C 30.175781 50.429688 30.238281 49.613281 30.503906 48.828125 C 30.601562 48.894531 30.710938 48.90625 30.820312 48.859375 C 30.960938 48.691406 31.085938 48.503906 31.191406 48.296875 C 31.367188 48.160156 31.5625 48.070312 31.773438 48.03125 C 31.714844 47.988281 31.660156 47.945312 31.613281 47.902344 C 32.339844 47.753906 33.046875 47.851562 33.730469 48.199219 C 34.707031 49.539062 34.496094 50.066406 33.09375 49.785156 C 33.0625 49.582031 32.992188 49.40625 32.882812 49.257812 C 32.601562 49.222656 32.320312 49.210938 32.035156 49.222656 Z M 32.035156 49.222656 "/>
</g>
<mask id="mask18">
  <g filter="url(#alpha)">
<rect x="0" y="0" width="80" height="80" style="fill:rgb(0%,0%,0%);fill-opacity:0.984314;stroke:none;"/>
  </g>
</mask>
<clipPath id="clip19">
  <rect x="0" y="0" width="80" height="80"/>
</clipPath>
<g id="surface59" clip-path="url(#clip19)">
<path style=" stroke:none;fill-rule:evenodd;fill:rgb(98.039216%,98.039216%,98.039216%);fill-opacity:1;" d="M 36.640625 52.792969 C 36.339844 52.792969 36.039062 52.792969 35.742188 52.792969 C 35.742188 51.25 35.742188 49.707031 35.742188 48.164062 C 36.003906 48.164062 36.269531 48.164062 36.535156 48.164062 C 36.535156 48.738281 36.535156 49.3125 36.535156 49.882812 C 36.601562 49.898438 36.65625 49.878906 36.691406 49.816406 C 37.222656 49.816406 37.75 49.816406 38.28125 49.816406 C 38.28125 49.199219 38.28125 48.585938 38.28125 47.96875 C 38.652344 47.96875 39.019531 47.96875 39.390625 47.96875 C 39.410156 49.597656 39.390625 51.230469 39.339844 52.859375 C 39.003906 52.949219 38.667969 52.949219 38.332031 52.859375 C 38.28125 52.242188 38.261719 51.625 38.28125 51.007812 C 37.734375 51.007812 37.1875 51.007812 36.640625 51.007812 C 36.640625 51.601562 36.640625 52.199219 36.640625 52.792969 Z M 36.640625 52.792969 "/>
</g>
<mask id="mask19">
  <g filter="url(#alpha)">
<rect x="0" y="0" width="80" height="80" style="fill:rgb(0%,0%,0%);fill-opacity:0.980392;stroke:none;"/>
  </g>
</mask>
<clipPath id="clip20">
  <rect x="0" y="0" width="80" height="80"/>
</clipPath>
<g id="surface62" clip-path="url(#clip20)">
<path style=" stroke:none;fill-rule:evenodd;fill:rgb(94.901961%,94.901961%,94.901961%);fill-opacity:1;" d="M 51.347656 50.414062 C 51.339844 50.253906 51.269531 50.1875 51.136719 50.214844 C 51.121094 51.109375 51.136719 51.988281 51.191406 52.859375 C 50.835938 52.945312 50.472656 52.945312 50.105469 52.859375 C 50.078125 51.230469 50.070312 49.597656 50.078125 47.96875 C 50.554688 47.957031 51.03125 47.96875 51.507812 48 C 51.597656 48.34375 51.746094 48.644531 51.957031 48.890625 C 52.210938 49.457031 52.472656 50.007812 52.75 50.546875 C 52.769531 49.707031 52.785156 48.871094 52.804688 48.03125 C 53.179688 47.96875 53.558594 47.945312 53.941406 47.96875 C 53.941406 49.621094 53.941406 51.273438 53.941406 52.925781 C 53.464844 52.9375 52.988281 52.925781 52.511719 52.890625 C 52.179688 52.023438 51.789062 51.195312 51.347656 50.414062 Z M 51.347656 50.414062 "/>
</g>
<mask id="mask20">
  <g filter="url(#alpha)">
<rect x="0" y="0" width="80" height="80" style="fill:rgb(0%,0%,0%);fill-opacity:0.666667;stroke:none;"/>
  </g>
</mask>
<clipPath id="clip21">
  <rect x="0" y="0" width="80" height="80"/>
</clipPath>
<g id="surface65" clip-path="url(#clip21)">
<path style=" stroke:none;fill-rule:evenodd;fill:rgb(74.901961%,74.901961%,74.901961%);fill-opacity:1;" d="M 31.613281 47.902344 C 31.660156 47.945312 31.714844 47.988281 31.773438 48.03125 C 31.5625 48.070312 31.367188 48.160156 31.191406 48.296875 C 31.085938 48.503906 30.960938 48.691406 30.820312 48.859375 C 30.710938 48.90625 30.601562 48.894531 30.503906 48.828125 C 30.757812 48.304688 31.125 47.996094 31.613281 47.902344 Z M 31.613281 47.902344 "/>
</g>
<mask id="mask21">
  <g filter="url(#alpha)">
<rect x="0" y="0" width="80" height="80" style="fill:rgb(0%,0%,0%);fill-opacity:0.470588;stroke:none;"/>
  </g>
</mask>
<clipPath id="clip22">
  <rect x="0" y="0" width="80" height="80"/>
</clipPath>
<g id="surface68" clip-path="url(#clip22)">
<path style=" stroke:none;fill-rule:evenodd;fill:rgb(78.431373%,78.431373%,78.431373%);fill-opacity:1;" d="M 36.691406 49.816406 C 36.65625 49.878906 36.601562 49.898438 36.535156 49.882812 C 36.535156 49.3125 36.535156 48.738281 36.535156 48.164062 C 36.269531 48.164062 36.003906 48.164062 35.742188 48.164062 C 35.742188 49.707031 35.742188 51.25 35.742188 52.792969 C 36.039062 52.792969 36.339844 52.792969 36.640625 52.792969 C 36.292969 52.921875 35.921875 52.96875 35.527344 52.925781 C 35.527344 51.25 35.527344 49.574219 35.527344 47.902344 C 35.898438 47.902344 36.269531 47.902344 36.640625 47.902344 C 36.621094 48.550781 36.640625 49.191406 36.691406 49.816406 Z M 36.691406 49.816406 "/>
</g>
<mask id="mask22">
  <g filter="url(#alpha)">
<rect x="0" y="0" width="80" height="80" style="fill:rgb(0%,0%,0%);fill-opacity:0.580392;stroke:none;"/>
  </g>
</mask>
<clipPath id="clip23">
  <rect x="0" y="0" width="80" height="80"/>
</clipPath>
<g id="surface71" clip-path="url(#clip23)">
<path style=" stroke:none;fill-rule:evenodd;fill:rgb(69.411765%,69.411765%,69.411765%);fill-opacity:1;" d="M 56.480469 50.808594 C 56.441406 50.933594 56.40625 51.0625 56.375 51.207031 C 56.332031 51.265625 56.28125 51.289062 56.21875 51.273438 C 56.15625 50.238281 56.15625 49.203125 56.21875 48.164062 C 55.933594 48.164062 55.652344 48.164062 55.371094 48.164062 C 55.355469 49.246094 55.390625 50.328125 55.476562 51.40625 C 55.464844 51.554688 55.433594 51.6875 55.371094 51.800781 C 55.269531 51.703125 55.207031 51.570312 55.183594 51.40625 C 55.160156 50.238281 55.148438 49.070312 55.160156 47.902344 C 55.53125 47.890625 55.898438 47.902344 56.269531 47.933594 C 56.320312 47.957031 56.363281 47.992188 56.402344 48.03125 C 56.460938 48.964844 56.484375 49.890625 56.480469 50.808594 Z M 56.480469 50.808594 "/>
</g>
<mask id="mask23">
  <g filter="url(#alpha)">
<rect x="0" y="0" width="80" height="80" style="fill:rgb(0%,0%,0%);fill-opacity:0.792157;stroke:none;"/>
  </g>
</mask>
<clipPath id="clip24">
  <rect x="0" y="0" width="80" height="80"/>
</clipPath>
<g id="surface74" clip-path="url(#clip24)">
<path style=" stroke:none;fill-rule:evenodd;fill:rgb(65.882353%,65.882353%,65.882353%);fill-opacity:1;" d="M 59.074219 51.40625 C 59.039062 51.367188 59.003906 51.320312 58.96875 51.273438 C 58.914062 50.238281 58.898438 49.203125 58.914062 48.164062 C 58.632812 48.164062 58.351562 48.164062 58.070312 48.164062 C 58.078125 49.15625 58.070312 50.148438 58.042969 51.140625 C 58.015625 51.28125 57.96875 51.414062 57.910156 51.539062 C 57.855469 51.46875 57.800781 51.402344 57.75 51.339844 C 57.773438 50.183594 57.824219 49.039062 57.910156 47.902344 C 58.3125 47.878906 58.707031 47.902344 59.101562 47.96875 C 59.144531 49.117188 59.136719 50.265625 59.074219 51.40625 Z M 59.074219 51.40625 "/>
</g>
<mask id="mask24">
  <g filter="url(#alpha)">
<rect x="0" y="0" width="80" height="80" style="fill:rgb(0%,0%,0%);fill-opacity:0.533333;stroke:none;"/>
  </g>
</mask>
<clipPath id="clip25">
  <rect x="0" y="0" width="80" height="80"/>
</clipPath>
<g id="surface77" clip-path="url(#clip25)">
<path style=" stroke:none;fill-rule:evenodd;fill:rgb(76.862745%,76.862745%,76.862745%);fill-opacity:1;" d="M 32.035156 49.222656 C 31.894531 49.445312 31.71875 49.597656 31.507812 49.6875 C 31.554688 50.191406 31.574219 50.695312 31.5625 51.207031 C 31.457031 51.46875 31.378906 51.449219 31.324219 51.140625 C 31.21875 50.679688 31.21875 50.214844 31.324219 49.753906 C 31.398438 49.402344 31.566406 49.183594 31.824219 49.089844 C 31.921875 49.097656 31.992188 49.140625 32.035156 49.222656 Z M 32.035156 49.222656 "/>
</g>
<mask id="mask25">
  <g filter="url(#alpha)">
<rect x="0" y="0" width="80" height="80" style="fill:rgb(0%,0%,0%);fill-opacity:0.00392157;stroke:none;"/>
  </g>
</mask>
<clipPath id="clip26">
  <rect x="0" y="0" width="80" height="80"/>
</clipPath>
<g id="surface80" clip-path="url(#clip26)">
<path style=" stroke:none;fill-rule:evenodd;fill:rgb(0%,0%,0%);fill-opacity:1;" d="M 24.734375 50.347656 C 24.699219 50.257812 24.699219 50.257812 24.734375 50.347656 Z M 24.734375 50.347656 "/>
</g>
<mask id="mask26">
  <g filter="url(#alpha)">
<rect x="0" y="0" width="80" height="80" style="fill:rgb(0%,0%,0%);fill-opacity:0.00392157;stroke:none;"/>
  </g>
</mask>
<clipPath id="clip27">
  <rect x="0" y="0" width="80" height="80"/>
</clipPath>
<g id="surface83" clip-path="url(#clip27)">
<path style=" stroke:none;fill-rule:evenodd;fill:rgb(0%,0%,0%);fill-opacity:1;" d="M 24.734375 50.347656 C 24.804688 50.382812 24.847656 50.449219 24.867188 50.546875 C 24.882812 51.296875 24.847656 52.046875 24.761719 52.792969 C 24.734375 51.976562 24.726562 51.164062 24.734375 50.347656 Z M 24.734375 50.347656 "/>
</g>
<mask id="mask27">
  <g filter="url(#alpha)">
<rect x="0" y="0" width="80" height="80" style="fill:rgb(0%,0%,0%);fill-opacity:0.313725;stroke:none;"/>
  </g>
</mask>
<clipPath id="clip28">
  <rect x="0" y="0" width="80" height="80"/>
</clipPath>
<g id="surface86" clip-path="url(#clip28)">
<path style=" stroke:none;fill-rule:evenodd;fill:rgb(76.862745%,76.862745%,76.862745%);fill-opacity:1;" d="M 51.347656 50.414062 C 51.359375 51.183594 51.347656 51.957031 51.324219 52.726562 C 51.300781 52.808594 51.257812 52.855469 51.191406 52.859375 C 51.136719 51.988281 51.121094 51.109375 51.136719 50.214844 C 51.269531 50.1875 51.339844 50.253906 51.347656 50.414062 Z M 51.347656 50.414062 "/>
</g>
<mask id="mask28">
  <g filter="url(#alpha)">
<rect x="0" y="0" width="80" height="80" style="fill:rgb(0%,0%,0%);fill-opacity:0.133333;stroke:none;"/>
  </g>
</mask>
<clipPath id="clip29">
  <rect x="0" y="0" width="80" height="80"/>
</clipPath>
<g id="surface89" clip-path="url(#clip29)">
<path style=" stroke:none;fill-rule:evenodd;fill:rgb(86.27451%,86.27451%,86.27451%);fill-opacity:1;" d="M 46.375 49.421875 C 46.519531 50.140625 46.507812 50.871094 46.347656 51.601562 C 46.222656 52.179688 45.933594 52.554688 45.476562 52.726562 C 45.4375 52.734375 45.402344 52.726562 45.371094 52.695312 C 45.59375 52.515625 45.816406 52.328125 46.03125 52.132812 C 46.289062 51.308594 46.371094 50.460938 46.269531 49.585938 C 46.28125 49.496094 46.316406 49.441406 46.375 49.421875 Z M 46.375 49.421875 "/>
</g>
<mask id="mask29">
  <g filter="url(#alpha)">
<rect x="0" y="0" width="80" height="80" style="fill:rgb(0%,0%,0%);fill-opacity:0.00392157;stroke:none;"/>
  </g>
</mask>
<clipPath id="clip30">
  <rect x="0" y="0" width="80" height="80"/>
</clipPath>
<g id="surface92" clip-path="url(#clip30)">
<path style=" stroke:none;fill-rule:evenodd;fill:rgb(0%,0%,0%);fill-opacity:1;" d="M 54.945312 53.652344 C 55.015625 53.695312 55.015625 53.695312 54.945312 53.652344 Z M 54.945312 53.652344 "/>
</g>
<mask id="mask30">
  <g filter="url(#alpha)">
<rect x="0" y="0" width="80" height="80" style="fill:rgb(0%,0%,0%);fill-opacity:0.729412;stroke:none;"/>
  </g>
</mask>
<clipPath id="clip31">
  <rect x="0" y="0" width="80" height="80"/>
</clipPath>
<g id="surface95" clip-path="url(#clip31)">
<path style=" stroke:none;fill-rule:evenodd;fill:rgb(78.823529%,78.823529%,78.823529%);fill-opacity:1;" d="M 79.816406 55.636719 C 79.886719 59.21875 79.921875 62.820312 79.921875 66.445312 C 79.902344 70.050781 79.886719 73.652344 79.867188 77.257812 C 79.835938 77.242188 79.808594 77.21875 79.789062 77.191406 C 79.769531 76.640625 79.753906 76.089844 79.734375 75.539062 C 79.699219 69.761719 79.699219 63.988281 79.734375 58.214844 C 79.746094 57.351562 79.773438 56.492188 79.816406 55.636719 Z M 79.816406 55.636719 "/>
</g>
</defs>
<g id="surface1">
<use xlink:href="#surface5" mask="url(#mask0)"/>
<use xlink:href="#surface8" mask="url(#mask1)"/>
<use xlink:href="#surface11" mask="url(#mask2)"/>
<use xlink:href="#surface14" mask="url(#mask3)"/>
<use xlink:href="#surface17" mask="url(#mask4)"/>
<use xlink:href="#surface20" mask="url(#mask5)"/>
<use xlink:href="#surface23" mask="url(#mask6)"/>
<use xlink:href="#surface26" mask="url(#mask7)"/>
<use xlink:href="#surface29" mask="url(#mask8)"/>
<use xlink:href="#surface32" mask="url(#mask9)"/>
<use xlink:href="#surface35" mask="url(#mask10)"/>
<use xlink:href="#surface38" mask="url(#mask11)"/>
<use xlink:href="#surface41" mask="url(#mask12)"/>
<use xlink:href="#surface44" mask="url(#mask13)"/>
<use xlink:href="#surface47" mask="url(#mask14)"/>
<use xlink:href="#surface50" mask="url(#mask15)"/>
<use xlink:href="#surface53" mask="url(#mask16)"/>
<use xlink:href="#surface56" mask="url(#mask17)"/>
<use xlink:href="#surface59" mask="url(#mask18)"/>
<use xlink:href="#surface62" mask="url(#mask19)"/>
<path style=" stroke:none;fill-rule:evenodd;fill:rgb(96.470588%,96.470588%,96.470588%);fill-opacity:1;" d="M 56.480469 50.808594 C 56.472656 51.007812 56.480469 51.207031 56.507812 51.40625 C 56.535156 51.527344 56.597656 51.601562 56.691406 51.636719 C 56.976562 51.679688 57.257812 51.679688 57.539062 51.636719 C 57.632812 51.558594 57.703125 51.457031 57.75 51.339844 C 57.800781 51.402344 57.855469 51.46875 57.910156 51.539062 C 57.96875 51.414062 58.015625 51.28125 58.042969 51.140625 C 58.070312 50.148438 58.078125 49.15625 58.070312 48.164062 C 58.351562 48.164062 58.632812 48.164062 58.914062 48.164062 C 58.898438 49.203125 58.914062 50.238281 58.96875 51.273438 C 59.003906 51.320312 59.039062 51.367188 59.074219 51.40625 C 58.804688 52.414062 58.238281 52.933594 57.382812 52.957031 C 56.933594 53.011719 56.492188 52.96875 56.058594 52.828125 C 55.703125 52.617188 55.476562 52.273438 55.371094 51.800781 C 55.433594 51.6875 55.464844 51.554688 55.476562 51.40625 C 55.390625 50.328125 55.355469 49.246094 55.371094 48.164062 C 55.652344 48.164062 55.933594 48.164062 56.21875 48.164062 C 56.15625 49.203125 56.15625 50.238281 56.21875 51.273438 C 56.28125 51.289062 56.332031 51.265625 56.375 51.207031 C 56.40625 51.0625 56.441406 50.933594 56.480469 50.808594 Z M 56.480469 50.808594 "/>
<use xlink:href="#surface65" mask="url(#mask20)"/>
<use xlink:href="#surface68" mask="url(#mask21)"/>
<use xlink:href="#surface71" mask="url(#mask22)"/>
<use xlink:href="#surface74" mask="url(#mask23)"/>
<use xlink:href="#surface77" mask="url(#mask24)"/>
<use xlink:href="#surface80" mask="url(#mask25)"/>
<use xlink:href="#surface83" mask="url(#mask26)"/>
<use xlink:href="#surface86" mask="url(#mask27)"/>
<use xlink:href="#surface89" mask="url(#mask28)"/>
<use xlink:href="#surface92" mask="url(#mask29)"/>
<use xlink:href="#surface95" mask="url(#mask30)"/>
</g>
</svg>
